<svg xmlns="http://www.w3.org/2000/svg" viewBox="0 0 621.87 148.85"><defs><style>.cls-1{fill:#b3b3b3;}.cls-2{fill:none;stroke:#000;stroke-miterlimit:10;stroke-width:1.2px;}</style></defs><title>Artboard 11</title><g id="Layer_2" data-name="Layer 2"><path class="cls-1" d="M96.24,111.47H80.09L80,68.41,54,111.47H42.33L16.17,68.41l.06,43.06H.08L0,48.68H21.8L48.14,93,74.36,48.68H96.15Z"/><path class="cls-1" d="M173.69,84.83l0,26.64H158.29v-6.55a71,71,0,0,1-32.11,7.44c-14.79,0-24-4.75-24.06-16.68,0-13.72,15-18,31.82-18a76.87,76.87,0,0,1,24.31,3.77c0-10-12.93-10.85-20.1-10.85A88.21,88.21,0,0,0,112,74.42l-5.48-11.21a103.36,103.36,0,0,1,32.37-5.47C160.91,57.74,173.48,64.82,173.69,84.83Z"/><path class="cls-1" d="M193.42,92.9c-2.66-1.44-8.37-5-11.53-11.38a16.11,16.11,0,0,1-1.95-7.37c0-13.81,16.13-16.41,35-16.41,12.84,0,27.42-.05,32.2,8.9a15.55,15.55,0,0,1,1.15,10.19A80.87,80.87,0,0,0,214,69.4c-9.53.07-18.45,1.88-18.41,3,.08,2.5,47.34,3.27,53.45,14.89a19.15,19.15,0,0,1,2,7.57c0,14.89-13.43,17.49-33.79,17.49s-39.2-2.6-39.23-19.46Z"/><path class="cls-1" d="M270.82,92.9c-2.67-1.44-8.38-5-11.54-11.38a16,16,0,0,1-1.94-7.37c0-13.81,16.12-16.41,35-16.41,13.61,0,26.77,0,32.19,8.9,2.65,4.32,2.53,9.24,2,12.6l-15.28-4.37c0-4.39-5.57-5.47-19.83-5.47-14.53,0-18.66,1.08-18.65,4.13,0,3.31,2.78,3.85,21,5.2,20.63,1.52,34.72,2.06,34.73,16.14,0,14.89-13.43,17.49-33.79,17.49s-39.19-2.6-39.22-19.46Z"/><path class="cls-1" d="M440.87,97.92l0,13.55H376.31l-.09-62.79h16.15l.07,49.24Z"/><path class="cls-1" d="M462.4,39.71l0,13.36H447.08l0-13.36Zm0,18.93.07,52.83H447.16l-.07-52.83Z"/><path class="cls-1" d="M543.72,82.23l-.14,29.24H528.15l0-23.41c0-11.22-3.79-17-16.44-17-10.31,0-21.43,5.3-26.17,10.86l0,29.6H470.21l-.07-52.83h15.34v9.23C493,62,503.41,57.74,516.24,57.74,530.32,57.74,543.51,62.76,543.72,82.23Z"/><path class="cls-1" d="M620.38,94.9c-4.69,12-22.5,17.37-35.64,17.46-4.91,0-23.16,0-31.63-12.58A25.64,25.64,0,0,1,549,85.1c0-19.47,15.12-27.36,36.55-27.36,7.78,0,21.26,0,29.61,10.1a29.24,29.24,0,0,1,6.58,20.84A23.09,23.09,0,0,1,620.38,94.9Z"/><path d="M96.24,101.83H80.09l-.06-43L54,101.83H42.33l-26.16-43,.06,43.05H.08L0,39.05H21.8l26.34,44.3,26.22-44.3H96.15Z"/><path d="M173.69,75.19l0,26.64H158.29V95.28a70.86,70.86,0,0,1-32.11,7.45c-14.79,0-24-4.76-24.06-16.69,0-13.72,15-18,31.82-18a76.88,76.88,0,0,1,24.31,3.76c0-10-12.93-10.85-20.1-10.85A88.27,88.27,0,0,0,112,64.79l-5.48-11.21a103.37,103.37,0,0,1,32.37-5.48C160.91,48.1,173.48,55.19,173.69,75.19Zm-15.42,6.1a73.24,73.24,0,0,0-22.43-3.23c-11.48,0-18.39,2-18.38,7.36,0,5.56,5.12,6,13.1,6,8.35,0,19.82-2.6,27.71-6Z"/><path d="M193.42,83.26c0,5.66,5.84,7.81,23,7.81,16.6,0,19.29-1.08,19.28-5.2s-2.51-4.31-21.08-5.48c-23.24-1.34-34.63-3.14-34.65-15.87,0-13.81,16.13-16.42,35-16.42,19.91,0,34.36,2.61,34.38,17.14H233.85c0-4.4-5.57-5.47-19.83-5.47-14.53,0-18.65,1.07-18.65,4.12,0,3.32,2.79,3.86,21,5.2,20.63,1.53,34.71,2.07,34.73,16.15,0,14.89-13.43,17.49-33.79,17.49s-39.2-2.6-39.23-19.47Z"/><path d="M270.82,83.26c0,5.66,5.84,7.81,23,7.81,16.6,0,19.28-1.08,19.28-5.2s-2.52-4.31-21.09-5.48c-23.23-1.34-34.62-3.14-34.64-15.87,0-13.81,16.12-16.42,35-16.42,19.91,0,34.35,2.61,34.37,17.14H311.25c0-4.4-5.57-5.47-19.83-5.47-14.53,0-18.66,1.07-18.65,4.12,0,3.32,2.78,3.86,21,5.2,20.63,1.53,34.72,2.07,34.73,16.15,0,14.89-13.43,17.49-33.79,17.49s-39.19-2.6-39.22-19.47Z"/><path d="M440.87,88.29l0,13.54H376.31l-.09-62.78h16.15l.07,49.24Z"/><path d="M462.4,30.08l0,13.36H447.08l0-13.36Zm0,18.92.07,52.83H447.16L447.09,49Z"/><path d="M543.72,72.59l-.14,29.24H528.15l0-23.41c0-11.21-3.79-17-16.44-17-10.31,0-21.43,5.29-26.17,10.85l0,29.6H470.21L470.14,49h15.34v9.24C493,52.32,503.41,48.1,516.24,48.1,530.32,48.1,543.51,53.13,543.72,72.59Z"/><path d="M605.61,82.91h15.25c-3.48,13.45-16.57,19.82-36.12,19.82-20.09,0-35.71-7.89-35.73-27.27S564.13,48.1,585.56,48.1c20.1,0,36.16,6.91,36.19,30.95h-57c1.71,8.43,9.79,11.21,20,11.21C595.31,90.26,601.76,88.29,605.61,82.91ZM565.23,69.27h40.1c-2.62-7.44-10.15-9.5-19.84-9.5C575,59.77,567.64,61.83,565.23,69.27Z"/><path d="M140.31,16.34h1.54l.39-.38V3.38L141.85,3h-1.54V2.61H148V3h-1.55l-.38.38V16l.38.38H148v.39h-7.73Z"/><path d="M152.24,16.92c-.4-.06-.77-.11-1.1-.14a10.23,10.23,0,0,0-1.16-.05h-.39l-.39-4.06h.2a7.34,7.34,0,0,0,1.72,2.95,3.27,3.27,0,0,0,2.32,1.07,1.81,1.81,0,0,0,1.27-.43,1.37,1.37,0,0,0,.49-1.1,1.32,1.32,0,0,0-.33-.91,2.55,2.55,0,0,0-.83-.59c-.34-.14-.79-.32-1.36-.51a3,3,0,0,0-.33-.11,10.93,10.93,0,0,1-1.61-.69,3.08,3.08,0,0,1-1.1-1,2.74,2.74,0,0,1-.44-1.59,2.77,2.77,0,0,1,1-2.28,4.52,4.52,0,0,1,2.89-.82,7.75,7.75,0,0,1,.93.06l.91.12L156,7a9.77,9.77,0,0,0,1.13.06h.39l.38,3.48h-.19a6.73,6.73,0,0,0-1.56-2.49,2.82,2.82,0,0,0-1.94-.89,1.57,1.57,0,0,0-1.11.39,1.37,1.37,0,0,0-.42,1,1.33,1.33,0,0,0,.35.93,2.44,2.44,0,0,0,.88.61c.36.16.84.34,1.44.55l.16,0,.15.06a10.83,10.83,0,0,1,1.66.69,3.33,3.33,0,0,1,1.11,1,2.54,2.54,0,0,1,.44,1.53,2.7,2.7,0,0,1-.55,1.72,3.34,3.34,0,0,1-1.58,1.08,7.66,7.66,0,0,1-2.49.36A13,13,0,0,1,152.24,16.92Z"/><path d="M162.87,16.92c-.39-.06-.76-.11-1.1-.14a10,10,0,0,0-1.16-.05h-.38l-.39-4.06H160a7.57,7.57,0,0,0,1.72,2.95,3.3,3.3,0,0,0,2.32,1.07,1.84,1.84,0,0,0,1.28-.43,1.4,1.4,0,0,0,.48-1.1,1.32,1.32,0,0,0-.33-.91,2.35,2.35,0,0,0-.83-.59c-.33-.14-.78-.32-1.35-.51L163,13a10.93,10.93,0,0,1-1.61-.69,3.11,3.11,0,0,1-1.11-1,2.73,2.73,0,0,1-.43-1.59,2.79,2.79,0,0,1,1-2.28,4.54,4.54,0,0,1,2.89-.82,7.5,7.5,0,0,1,.93.06l.91.12,1.06.15a9.77,9.77,0,0,0,1.13.06h.38l.39,3.48h-.19a6.73,6.73,0,0,0-1.56-2.49,2.82,2.82,0,0,0-1.94-.89,1.53,1.53,0,0,0-1.11.39,1.37,1.37,0,0,0-.42,1,1.33,1.33,0,0,0,.35.93,2.35,2.35,0,0,0,.88.61c.35.16.83.34,1.44.55l.15,0,.16.06a10.27,10.27,0,0,1,1.65.69,3.15,3.15,0,0,1,1.11,1,2.48,2.48,0,0,1,.45,1.53,2.76,2.76,0,0,1-.55,1.72,3.32,3.32,0,0,1-1.59,1.08,7.59,7.59,0,0,1-2.48.36A13,13,0,0,1,162.87,16.92Z"/><path d="M172.38,16.18a3.44,3.44,0,0,1-.94-2.55V7.83l-.38-.38h-1V7.06h11.8v9.28h1.35v.39q-1.65,0-2.7.09a16.42,16.42,0,0,0-2.14.3V15.38h-.19a3.29,3.29,0,0,1-1.34,1.27,4.21,4.21,0,0,1-2,.47A3.41,3.41,0,0,1,172.38,16.18Zm5.4-.95a3.83,3.83,0,0,0,.43-2V7.83l-.39-.38h-2.7v6.38a2.78,2.78,0,0,0,.38,1.55,1.24,1.24,0,0,0,1.07.58A1.37,1.37,0,0,0,177.78,15.23Z"/><path d="M186.55,16.49a4.63,4.63,0,0,1-2-1.81,5.26,5.26,0,0,1-.71-2.79,5.32,5.32,0,0,1,.7-2.78,4.49,4.49,0,0,1,2-1.81,7.16,7.16,0,0,1,3.13-.63,6,6,0,0,1,3.8,1.1,3.82,3.82,0,0,1,1.38,3.16l-.58.58h-6.57V12a6.12,6.12,0,0,0,.39,2.24,3.72,3.72,0,0,0,1.14,1.57,2.79,2.79,0,0,0,1.77.58,3.11,3.11,0,0,0,2.49-1.18,5.52,5.52,0,0,0,1.19-3.07l.37.19a5.85,5.85,0,0,1-1.58,3.6,5.3,5.3,0,0,1-3.8,1.24A7.1,7.1,0,0,1,186.55,16.49Zm4-5.37.38-.39A7,7,0,0,0,190.55,8c-.28-.65-.66-1-1.12-1s-.89.36-1.19,1.08a8.9,8.9,0,0,0-.53,3Z"/><path d="M437,16.34h1.74l.39-.38V3.38L438.71,3H437V2.61h3.69l9,8.28h.19V3.38L449.44,3h-4.35V2.61h7.35V3H450.7l-.39.38V16.92h-.19L439.78,7.45h-.2V16l.39.38h4.35v.39H437Z"/><path d="M454.28,5.42a2.29,2.29,0,0,1-.68-1.67,2.2,2.2,0,0,1,.68-1.63,2.35,2.35,0,0,1,3.29,0,2.2,2.2,0,0,1,.67,1.63,2.29,2.29,0,0,1-.67,1.67,2.35,2.35,0,0,1-3.29,0Zm2.47-.83a1.14,1.14,0,0,0,.33-.84,1.07,1.07,0,0,0-.34-.81,1.12,1.12,0,0,0-.82-.33,1.14,1.14,0,0,0-.82.33,1.11,1.11,0,0,0-.34.81,1.14,1.14,0,0,0,.33.84,1.1,1.1,0,0,0,.83.34A1.09,1.09,0,0,0,456.75,4.59Z"/><path d="M462.48,16.22a5.8,5.8,0,0,1-2.28-2.58,9.16,9.16,0,0,1-.8-4,9.16,9.16,0,0,1,.8-4,5.8,5.8,0,0,1,2.28-2.58,7.26,7.26,0,0,1,7,0,5.86,5.86,0,0,1,2.28,2.58,9.16,9.16,0,0,1,.79,4,9.16,9.16,0,0,1-.79,4,5.86,5.86,0,0,1-2.28,2.58,7.26,7.26,0,0,1-7,0Zm5.35-1.36a16.12,16.12,0,0,0,.66-5.19,16.17,16.17,0,0,0-.65-5.21c-.43-1.23-1-1.85-1.86-1.85s-1.44.61-1.87,1.84a16.4,16.4,0,0,0-.65,5.22,16.12,16.12,0,0,0,.66,5.19c.44,1.25,1.06,1.87,1.86,1.87S467.4,16.11,467.83,14.86Z"/><path d="M473.71,16.34h1.55l.39-.38V4l-.39-.38h-1.74V3.19a20.9,20.9,0,0,0,3.3-.26,12.51,12.51,0,0,0,2.7-.71V16l.38.38h1.55v.39h-7.74Z"/><line class="cls-2" x1="204.39" y1="22.14" x2="417.46" y2="22.14"/><path d="M184.79,144.06h1.27l.32-.32V133.35l-.32-.32h-1.27v-.32h5.91a8.44,8.44,0,0,1,3.58.71,5.17,5.17,0,0,1,2.32,2,6.36,6.36,0,0,1,0,6.21,5.19,5.19,0,0,1-2.32,2,8.59,8.59,0,0,1-3.58.7h-5.91Zm6.07,0a2.45,2.45,0,0,0,2.25-1.44,11,11,0,0,0,0-8.15,2.45,2.45,0,0,0-2.25-1.44h-1l-.32.32v10.39l.32.32Z"/><path d="M200.62,144.18a3.87,3.87,0,0,1-1.67-1.5,4.34,4.34,0,0,1-.58-2.3,4.48,4.48,0,0,1,.57-2.3,3.73,3.73,0,0,1,1.67-1.49,5.85,5.85,0,0,1,2.58-.52,4.87,4.87,0,0,1,3.14.91,3.13,3.13,0,0,1,1.15,2.6l-.48.48h-5.44v.37a5,5,0,0,0,.33,1.85,3,3,0,0,0,.94,1.3,2.32,2.32,0,0,0,1.47.48,2.58,2.58,0,0,0,2-1,4.47,4.47,0,0,0,1-2.54l.31.16a4.83,4.83,0,0,1-1.31,3,4.35,4.35,0,0,1-3.14,1A5.87,5.87,0,0,1,200.62,144.18Zm3.34-4.43.32-.33a5.86,5.86,0,0,0-.35-2.22c-.24-.54-.54-.81-.93-.81s-.73.3-1,.89a7.29,7.29,0,0,0-.44,2.47Z"/><path d="M211.26,144.54l-.91-.12a9,9,0,0,0-1,0h-.32l-.31-3.36h.16a6.06,6.06,0,0,0,1.42,2.44,2.69,2.69,0,0,0,1.92.89,1.57,1.57,0,0,0,1.05-.35,1.16,1.16,0,0,0,.4-.92,1.11,1.11,0,0,0-.27-.75,1.94,1.94,0,0,0-.69-.48,11.81,11.81,0,0,0-1.12-.43l-.27-.09a8.54,8.54,0,0,1-1.33-.57,2.68,2.68,0,0,1-.92-.82,2.3,2.3,0,0,1-.35-1.31,2.27,2.27,0,0,1,.83-1.88,3.74,3.74,0,0,1,2.39-.68,5.14,5.14,0,0,1,.77.05l.75.09c.3.06.59.1.87.13a8.9,8.9,0,0,0,.94,0h.32l.32,2.88h-.16a5.6,5.6,0,0,0-1.29-2.06,2.34,2.34,0,0,0-1.61-.74,1.24,1.24,0,0,0-.91.33,1.11,1.11,0,0,0-.35.85,1.12,1.12,0,0,0,.29.78,2.19,2.19,0,0,0,.73.5c.29.13.69.28,1.19.45l.12,0,.13.05a9.39,9.39,0,0,1,1.37.56,2.83,2.83,0,0,1,.92.8,2.14,2.14,0,0,1,.37,1.27,2.31,2.31,0,0,1-.46,1.43,2.67,2.67,0,0,1-1.31.88,6.2,6.2,0,0,1-2,.3A10.4,10.4,0,0,1,211.26,144.54Z"/><path d="M218.53,143.56a4.18,4.18,0,0,1-1.15-3.13,4,4,0,0,1,4.35-4.36,4.09,4.09,0,0,1,.71.05l.65.09a7.74,7.74,0,0,0,.77.13,7.3,7.3,0,0,0,.87,0h.32l.32,3.19h-.32a5.1,5.1,0,0,0-1-2.27,2,2,0,0,0-1.55-.84,1.59,1.59,0,0,0-1.45,1,5.56,5.56,0,0,0-.52,2.65,6.16,6.16,0,0,0,.59,2.88,1.93,1.93,0,0,0,1.79,1.1,2.27,2.27,0,0,0,1.37-.45,3.47,3.47,0,0,0,1-1.24,5,5,0,0,0,.5-1.83l.3.16a4.92,4.92,0,0,1-1.28,3,4.22,4.22,0,0,1-3.06,1A4.47,4.47,0,0,1,218.53,143.56Z"/><path d="M226.49,144.06h1l.32-.32v-7h-1.28v-.32h.58c.78,0,1.45,0,2,0a6.85,6.85,0,0,0,1.57-.28v2.56h.16a3.4,3.4,0,0,1,.86-1.75,2.26,2.26,0,0,1,1.53-.73l1.28-.08-.32,2.72h-2.71a.58.58,0,0,0-.64.63v4.32l.32.32h2.55v.32h-7.19Z"/><path d="M235,144.06h1l.32-.32v-7h-1.12v-.32h.53q1.18,0,2,0a6,6,0,0,0,1.59-.29v7.67l.32.32h1v.32H235Zm1.12-12.31h3.2v3h-3.2Z"/><path d="M241,148.05h1l.32-.32v-11h-1.12v-.32h.53c.76,0,1.4,0,1.94,0a5.84,5.84,0,0,0,1.53-.29v1.28h.16a2.33,2.33,0,0,1,1-.94,3.08,3.08,0,0,1,1.48-.34,3.38,3.38,0,0,1,1.92.57,3.76,3.76,0,0,1,1.34,1.55,5.16,5.16,0,0,1,0,4.39,3.78,3.78,0,0,1-1.35,1.55,3.54,3.54,0,0,1-2,.57,3.44,3.44,0,0,1-1.44-.3,2.16,2.16,0,0,1-1-.8v4.13l.32.32h2.08v.32H241Zm6.95-5a9.12,9.12,0,0,0,0-5.31,1.34,1.34,0,0,0-1.27-1,1.1,1.1,0,0,0-1,.66,4.36,4.36,0,0,0-.33,1.89v2.32a3.87,3.87,0,0,0,.33,1.77,1.06,1.06,0,0,0,1,.63A1.35,1.35,0,0,0,248,143.06Z"/><path d="M254.14,144a2.32,2.32,0,0,1-.8-1.87v-5.43H251.9v-.32a4.81,4.81,0,0,0,2.84-1.07,4.37,4.37,0,0,0,1.39-2.61h.24v3.68h2.4v.32h-2.4v6.07a1.64,1.64,0,0,0,.25.94.79.79,0,0,0,.68.34c.47,0,.86-.3,1.18-.9a5.71,5.71,0,0,0,.55-2.41l.32.16a5.18,5.18,0,0,1-.86,2.89,2.64,2.64,0,0,1-2.2.9A3.17,3.17,0,0,1,254.14,144Z"/><path d="M259.59,144.06h1l.32-.32v-7h-1.12v-.32h.52c.79,0,1.47,0,2.05,0a5.92,5.92,0,0,0,1.58-.29v7.67l.32.32h1v.32h-5.59Zm1.12-12.31h3.19v3h-3.19Z"/><path d="M267.82,144.18a3.74,3.74,0,0,1-1.6-1.5,4.53,4.53,0,0,1-.56-2.3,4.58,4.58,0,0,1,.56-2.3,3.66,3.66,0,0,1,1.6-1.49,6.13,6.13,0,0,1,4.94,0,3.69,3.69,0,0,1,1.61,1.49,4.58,4.58,0,0,1,.56,2.3,4.53,4.53,0,0,1-.56,2.3,3.77,3.77,0,0,1-1.61,1.5,6.13,6.13,0,0,1-4.94,0Zm3.62-.78a15.87,15.87,0,0,0,0-6,1.16,1.16,0,0,0-2.29,0,15.87,15.87,0,0,0,0,6,1.16,1.16,0,0,0,2.29,0Z"/><path d="M275.41,144.06h.8l.32-.32v-7h-1.12v-.32c.86,0,1.6,0,2.23-.06a8.88,8.88,0,0,0,1.76-.26v1.44h.16a2.77,2.77,0,0,1,1.11-1.06,3.54,3.54,0,0,1,1.64-.38,2.66,2.66,0,0,1,2.84,2.88v4.79l.32.32h.8v.32H275.41Zm6.39,0,.32-.32v-5a2.28,2.28,0,0,0-.32-1.29,1,1,0,0,0-.88-.47,1.11,1.11,0,0,0-1,.6,3.17,3.17,0,0,0-.36,1.64v4.47l.32.32Z"/><path d="M292.91,144.18a3.69,3.69,0,0,1-1.6-1.5,4.43,4.43,0,0,1-.56-2.3,4.48,4.48,0,0,1,.56-2.3,3.61,3.61,0,0,1,1.6-1.49,6.13,6.13,0,0,1,4.94,0,3.69,3.69,0,0,1,1.61,1.49,4.58,4.58,0,0,1,.56,2.3,4.53,4.53,0,0,1-.56,2.3,3.77,3.77,0,0,1-1.61,1.5,6.13,6.13,0,0,1-4.94,0Zm3.61-.78a15.35,15.35,0,0,0,0-6,1.14,1.14,0,0,0-1.14-1,1.16,1.16,0,0,0-1.14,1,15.35,15.35,0,0,0,0,6,1.17,1.17,0,0,0,1.14,1A1.15,1.15,0,0,0,296.52,143.4Z"/><path d="M300.5,144.06h.95l.32-.32v-7H300.5v-.32h1.27v-.16L305,133a5,5,0,0,1,1-.82,2.68,2.68,0,0,1,.93-.3l1.44-.16-.32,2.72h-2.88l-.32.32v1.6h2.56v.32h-2.56v7l.32.32h2.24v.32H300.5Z"/><path d="M311.84,144.06h1l.32-.32v-7H312v-.32c.86,0,1.61,0,2.23-.06a9.09,9.09,0,0,0,1.77-.26v1.44h.16a3,3,0,0,1,1.21-1.06,3.74,3.74,0,0,1,1.66-.38,3.41,3.41,0,0,1,1.67.38,1.84,1.84,0,0,1,.89,1.06h.16a2.75,2.75,0,0,1,1.17-1.06,3.82,3.82,0,0,1,1.7-.38,2.6,2.6,0,0,1,2,.77,2.91,2.91,0,0,1,.73,2.11v4.79l.32.32h1v.32H311.84Zm6.55,0,.32-.32v-5.27a1.69,1.69,0,0,0-.3-1.06,1,1,0,0,0-.82-.38,1.24,1.24,0,0,0-1,.51,2.27,2.27,0,0,0-.38,1.41v4.79l.32.32Zm5.6,0,.32-.32v-5.27a1.69,1.69,0,0,0-.31-1.06,1,1,0,0,0-.81-.38,1.26,1.26,0,0,0-1.06.51,2.34,2.34,0,0,0-.38,1.41v4.79l.32.32Z"/><path d="M329.8,144.22a1.62,1.62,0,0,1-.7-1.44,1.89,1.89,0,0,1,.38-1.17,3.36,3.36,0,0,1,1.25-.9,14.67,14.67,0,0,1,2.36-.81l1.76-.48v-1.11a2.4,2.4,0,0,0-.36-1.4,1.18,1.18,0,0,0-1-.52.9.9,0,0,0-.91.56,2.32,2.32,0,0,0,0,1.52l.18.64-3.18.79v-1.32a2.06,2.06,0,0,1,1.11-1.83,5.81,5.81,0,0,1,3-.68,5.15,5.15,0,0,1,3.09.8,2.62,2.62,0,0,1,1.08,2.24v4.95h1.28v.32c-.92,0-1.69,0-2.33.07a15.22,15.22,0,0,0-1.83.25v-1.76h-.16a3.22,3.22,0,0,1-.64,1.07,2,2,0,0,1-.88.53,5.08,5.08,0,0,1-1.43.16A3.75,3.75,0,0,1,329.8,144.22Zm4.34-.73a2.78,2.78,0,0,0,.53-1.16,7.54,7.54,0,0,0,.18-1.75v-.83a4.22,4.22,0,0,0-1.91,1.11,2.33,2.33,0,0,0-.64,1.65,1.68,1.68,0,0,0,.27,1,.88.88,0,0,0,.75.38A1,1,0,0,0,334.14,143.49Z"/><path d="M340.87,147.73a2.24,2.24,0,0,1-1.46-1.75l-.08-.8,3,.32V146a1.92,1.92,0,0,0,.62,1.52,2.39,2.39,0,0,0,1.67.55,2.67,2.67,0,0,0,1.44-.32,1.11,1.11,0,0,0,.51-1,1,1,0,0,0-.4-.8,2.77,2.77,0,0,0-1-.42c-.4-.08-.95-.17-1.64-.27h-.15l-.14,0a8.57,8.57,0,0,1-1.82-.38,2.34,2.34,0,0,1-1.17-1,4,4,0,0,1-.47-2.17l2.55-.16v-.16a3.48,3.48,0,0,1-1.87-.83,2,2,0,0,1-.68-1.56,2.38,2.38,0,0,1,.52-1.55,3.21,3.21,0,0,1,1.49-1,6.92,6.92,0,0,1,2.3-.34,7.48,7.48,0,0,1,2.06.26,3.77,3.77,0,0,1,1.46.78,2.86,2.86,0,0,1,.35-1.48,1.13,1.13,0,0,1,.92-.6L350,135l-.16,2.24H348l-.13.13a2.32,2.32,0,0,1,.61,1.63,2.13,2.13,0,0,1-1.11,1.92,6.82,6.82,0,0,1-3.19.79l-1.94.1a.6.6,0,0,0,.24.51,1.39,1.39,0,0,0,.63.24l1.07.13h.11a26.16,26.16,0,0,1,2.6.38,4.65,4.65,0,0,1,1.83.79,1.86,1.86,0,0,1,.79,1.61,2.4,2.4,0,0,1-1.33,2.16,7.48,7.48,0,0,1-3.75.78A8.2,8.2,0,0,1,340.87,147.73Zm4.11-7a5.5,5.5,0,0,0,.26-1.91A4.83,4.83,0,0,0,345,137a.93.93,0,0,0-1.74,0,4.83,4.83,0,0,0-.25,1.79,5.5,5.5,0,0,0,.26,1.91.9.9,0,0,0,1.72,0Z"/><path d="M351.37,144.22a1.65,1.65,0,0,1-.7-1.44,1.83,1.83,0,0,1,.39-1.17,3.31,3.31,0,0,1,1.24-.9,15.2,15.2,0,0,1,2.37-.81l1.75-.48v-1.11a2.4,2.4,0,0,0-.36-1.4,1.17,1.17,0,0,0-1-.52.9.9,0,0,0-.91.56,2.32,2.32,0,0,0,0,1.52l.18.64-3.18.79v-1.32a2.05,2.05,0,0,1,1.12-1.83,5.74,5.74,0,0,1,3-.68,5.15,5.15,0,0,1,3.09.8,2.62,2.62,0,0,1,1.08,2.24v4.95h1.28v.32c-.92,0-1.69,0-2.33.07a15.22,15.22,0,0,0-1.83.25v-1.76h-.16a3.39,3.39,0,0,1-.63,1.07,2,2,0,0,1-.89.53,5,5,0,0,1-1.43.16A3.75,3.75,0,0,1,351.37,144.22Zm4.34-.73a2.78,2.78,0,0,0,.53-1.16,7.54,7.54,0,0,0,.18-1.75v-.83a4.22,4.22,0,0,0-1.91,1.11,2.33,2.33,0,0,0-.64,1.65,1.68,1.68,0,0,0,.27,1,.88.88,0,0,0,.75.38A1,1,0,0,0,355.71,143.49Z"/><path d="M361,144.22l4.95-7.51h-2.39l-1.92,3.51h-.16l.32-3.83h7.83v.16l-4.8,7.51h2.56l2.08-3.68h.16l-.48,4H361Z"/><path d="M370.09,144.06h1l.32-.32v-7h-1.12v-.32h.52c.79,0,1.47,0,2.05,0a5.92,5.92,0,0,0,1.58-.29v7.67l.32.32h1v.32h-5.59Zm1.12-12.31h3.19v3h-3.19Z"/><path d="M376,144.06h.8l.32-.32v-7H376v-.32c.86,0,1.61,0,2.23-.06a9.09,9.09,0,0,0,1.77-.26v1.44h.15a2.73,2.73,0,0,1,1.12-1.06,3.5,3.5,0,0,1,1.63-.38,2.8,2.8,0,0,1,2.07.77,2.85,2.85,0,0,1,.78,2.11v4.79l.32.32h.8v.32H376Zm6.39,0,.32-.32v-5a2.2,2.2,0,0,0-.32-1.29,1,1,0,0,0-.88-.47,1.12,1.12,0,0,0-1,.6,3.27,3.27,0,0,0-.36,1.64v4.47l.32.32Z"/><path d="M389.6,144.18a3.81,3.81,0,0,1-1.67-1.5,4.34,4.34,0,0,1-.58-2.3,4.48,4.48,0,0,1,.57-2.3,3.71,3.71,0,0,1,1.66-1.49,5.93,5.93,0,0,1,2.59-.52,4.89,4.89,0,0,1,3.14.91,3.15,3.15,0,0,1,1.14,2.6l-.47.48h-5.44v.37a5,5,0,0,0,.33,1.85,3,3,0,0,0,.94,1.3,2.31,2.31,0,0,0,1.46.48,2.6,2.6,0,0,0,2.06-1,4.54,4.54,0,0,0,1-2.54l.3.16a4.82,4.82,0,0,1-1.3,3,4.36,4.36,0,0,1-3.14,1A5.84,5.84,0,0,1,389.6,144.18Zm3.34-4.43.32-.33a5.86,5.86,0,0,0-.35-2.22q-.36-.81-.93-.81c-.41,0-.73.3-1,.89a7.29,7.29,0,0,0-.44,2.47Z"/><path d="M405.65,144.36a2.58,2.58,0,0,1-1-.94,3.75,3.75,0,0,0-1.29.26,4.57,4.57,0,0,0-1.26.7h-.32V133h-1.28v-.32a11.78,11.78,0,0,0,2.12-.21,14.63,14.63,0,0,0,2.19-.59v5.28h.16a2.08,2.08,0,0,1,.86-.83,3,3,0,0,1,1.4-.29,3.62,3.62,0,0,1,1.94.51,3.31,3.31,0,0,1,1.27,1.48,6,6,0,0,1,0,4.59,3.48,3.48,0,0,1-1.3,1.52,3.54,3.54,0,0,1-1.91.53A3.23,3.23,0,0,1,405.65,144.36Zm1.61-1.28a8,8,0,0,0,.38-2.7,9.38,9.38,0,0,0-.16-1.87,3.22,3.22,0,0,0-.49-1.26,1.05,1.05,0,0,0-.87-.45,1.12,1.12,0,0,0-1,.64,3.63,3.63,0,0,0-.36,1.76v2.65a3.17,3.17,0,0,0,.36,1.64,1.1,1.1,0,0,0,1,.6C406.62,144.09,407,143.75,407.26,143.08Z"/><path d="M411.32,144.06h.95l.32-.32V133h-1.27v-.32a12,12,0,0,0,2.13-.21,14.18,14.18,0,0,0,2.18-.59v11.83l.32.32h1v.32h-5.59Z"/><path d="M419.23,144.18a3.74,3.74,0,0,1-1.6-1.5,4.43,4.43,0,0,1-.56-2.3,4.48,4.48,0,0,1,.56-2.3,3.66,3.66,0,0,1,1.6-1.49,6.13,6.13,0,0,1,4.94,0,3.69,3.69,0,0,1,1.61,1.49,4.58,4.58,0,0,1,.56,2.3,4.53,4.53,0,0,1-.56,2.3,3.77,3.77,0,0,1-1.61,1.5,6.13,6.13,0,0,1-4.94,0Zm3.62-.78a15.87,15.87,0,0,0,0-6,1.16,1.16,0,0,0-2.29,0,15.35,15.35,0,0,0,0,6,1.16,1.16,0,0,0,2.29,0Z"/><path d="M428,147.73A2.24,2.24,0,0,1,426.5,146l-.08-.8,3,.32V146a1.92,1.92,0,0,0,.62,1.52,2.39,2.39,0,0,0,1.67.55,2.67,2.67,0,0,0,1.44-.32,1.11,1.11,0,0,0,.51-1,1,1,0,0,0-.4-.8,2.77,2.77,0,0,0-1-.42c-.4-.08-1-.17-1.64-.27h-.15l-.14,0a8.57,8.57,0,0,1-1.82-.38,2.34,2.34,0,0,1-1.17-1,4,4,0,0,1-.47-2.17l2.55-.16v-.16a3.48,3.48,0,0,1-1.87-.83,2,2,0,0,1-.68-1.56,2.38,2.38,0,0,1,.52-1.55,3.21,3.21,0,0,1,1.49-1,6.92,6.92,0,0,1,2.3-.34,7.48,7.48,0,0,1,2.06.26,3.77,3.77,0,0,1,1.46.78,2.86,2.86,0,0,1,.35-1.48,1.13,1.13,0,0,1,.92-.6l1.12-.08-.16,2.24h-1.91l-.13.13a2.32,2.32,0,0,1,.61,1.63,2.13,2.13,0,0,1-1.11,1.92,6.82,6.82,0,0,1-3.19.79l-1.94.1a.6.6,0,0,0,.24.51,1.39,1.39,0,0,0,.63.24l1.07.13h.11a26.16,26.16,0,0,1,2.6.38,4.65,4.65,0,0,1,1.83.79,1.86,1.86,0,0,1,.79,1.61,2.4,2.4,0,0,1-1.33,2.16,7.48,7.48,0,0,1-3.75.78A8.2,8.2,0,0,1,428,147.73Zm4.11-7a5.5,5.5,0,0,0,.26-1.91,4.83,4.83,0,0,0-.25-1.79.93.93,0,0,0-1.74,0,4.83,4.83,0,0,0-.25,1.79,5.5,5.5,0,0,0,.26,1.91.9.9,0,0,0,1.72,0Z"/></g></svg>