<svg xmlns="http://www.w3.org/2000/svg" viewBox="0 0 1763.07 430.09"><defs><style>.cls-1{fill:none;stroke:#000;stroke-miterlimit:10;stroke-width:3.41px;}</style></defs><title>Artboard 10</title><g id="Layer_2" data-name="Layer 2"><path d="M272.9,302.76H227.11L227,180.68,153.1,302.76H120L45.86,180.68,46,302.76H.24L0,124.72H61.81L136.5,250.36l74.35-125.64h61.81Z"/><path d="M492.51,227.22l.1,75.54H448.87l0-18.57a201.05,201.05,0,0,1-91,21.11c-42,0-68.18-13.48-68.23-47.31,0-38.91,42.66-51.12,90.22-51.12,25.69,0,49.35,4.07,68.94,10.68,0-28.48-36.66-30.77-57-30.77a250.18,250.18,0,0,0-74.25,10.94l-15.56-31.8c30.51-9.92,60.51-15.51,91.8-15.51C456.3,150.41,491.93,170.5,492.51,227.22Zm-43.72,17.29c-15.27-4.83-35.88-9.15-63.59-9.15-32.56,0-52.14,5.59-52.12,20.85,0,15.77,14.52,17,37.15,17,23.66,0,56.2-7.37,78.58-17Z"/><path d="M548.48,250.11c0,16,16.56,22.13,65.14,22.13,47,0,54.68-3.06,54.66-14.76,0-11.44-7.13-12.2-59.79-15.51-65.88-3.81-98.19-8.9-98.24-45-.05-39.17,45.73-46.54,99.14-46.54,56.46,0,97.42,7.37,97.47,48.58H663.11c0-12.47-15.78-15.52-56.22-15.52-41.21,0-52.9,3.05-52.89,11.7,0,9.41,7.9,10.94,59.54,14.75C672,214.25,712,215.77,712,255.7c.06,42.22-38.08,49.6-95.82,49.6S505.05,297.92,505,250.11Z"/><path d="M768,250.11c0,16,16.56,22.13,65.14,22.13,47,0,54.68-3.06,54.66-14.76,0-11.44-7.13-12.2-59.79-15.51-65.88-3.81-98.19-8.9-98.24-45-.05-39.17,45.73-46.54,99.14-46.54,56.46,0,97.42,7.37,97.47,48.58H882.58c0-12.47-15.78-15.52-56.22-15.52-41.21,0-52.9,3.05-52.89,11.7,0,9.41,7.9,10.94,59.54,14.75,58.5,4.33,98.43,5.85,98.48,45.78.06,42.22-38.08,49.6-95.82,49.6s-111.15-7.38-111.21-55.19Z"/><path d="M1250.16,264.35l0,38.41H1067.08l-.24-178h45.78l.19,139.63Z"/><path d="M1311.21,99.29l0,37.89h-43.49l0-37.89Zm.07,53.66.2,149.81H1268l-.2-149.81Z"/><path d="M1541.79,219.84l-.4,82.92h-43.74l-.1-66.39c0-31.79-10.74-48.32-46.61-48.32-29.24,0-60.76,15-74.22,30.78l.12,83.93h-43.5l-.2-149.81h43.5l0,26.2c21.34-16.79,50.83-28.74,87.2-28.74C1503.8,150.41,1541.21,164.65,1541.79,219.84Z"/><path d="M1717.3,249.09h43.24c-9.87,38.15-47,56.21-102.42,56.21-57,0-101.26-22.38-101.33-77.32-.08-55.19,42.88-77.57,103.66-77.57,57,0,102.52,19.58,102.62,87.75H1601.31c4.86,23.9,27.77,31.79,56.76,31.79C1688.08,270,1706.39,264.35,1717.3,249.09Zm-114.5-38.66h113.69c-7.41-21.11-28.78-27-56.25-27C1630.48,183.47,1609.63,189.32,1602.8,210.43Z"/><path d="M397.85,46.34h4.39l1.1-1.1V9.6l-1.1-1.1h-4.39V7.4h21.94V8.5H415.4l-1.09,1.1V45.24l1.09,1.1h4.39v1.1H397.85Z"/><path d="M431.69,48c-1.13-.18-2.18-.32-3.13-.41s-2-.13-3.29-.13h-1.09l-1.1-11.52h.55a21,21,0,0,0,4.88,8.36,9.27,9.27,0,0,0,6.58,3,5.31,5.31,0,0,0,3.62-1.21A4,4,0,0,0,440.08,43a3.71,3.71,0,0,0-.93-2.57,6.84,6.84,0,0,0-2.36-1.68c-1-.42-2.23-.9-3.84-1.45L432,37a31.32,31.32,0,0,1-4.58-2,8.82,8.82,0,0,1-3.13-2.79,7.81,7.81,0,0,1-1.23-4.53A7.82,7.82,0,0,1,426,21.25q2.88-2.33,8.2-2.33a22.06,22.06,0,0,1,2.63.16l2.58.33c1,.19,2,.33,3,.44a28.25,28.25,0,0,0,3.2.17h1.1l1.1,9.87h-.55a19.25,19.25,0,0,0-4.42-7,8,8,0,0,0-5.51-2.55,4.43,4.43,0,0,0-3.15,1.12A3.86,3.86,0,0,0,433,24.35a3.78,3.78,0,0,0,1,2.66,7.44,7.44,0,0,0,2.49,1.73c1,.43,2.37,1,4.09,1.53l.44.11a3,3,0,0,1,.44.16,31.86,31.86,0,0,1,4.68,2,9.28,9.28,0,0,1,3.16,2.74,7.23,7.23,0,0,1,1.26,4.36,7.75,7.75,0,0,1-1.56,4.88,9.4,9.4,0,0,1-4.5,3.05,21.88,21.88,0,0,1-7.05,1A36.46,36.46,0,0,1,431.69,48Z"/><path d="M461.85,48c-1.13-.18-2.18-.32-3.13-.41s-2-.13-3.29-.13h-1.09l-1.1-11.52h.55a21.12,21.12,0,0,0,4.88,8.36,9.27,9.27,0,0,0,6.58,3,5.29,5.29,0,0,0,3.62-1.21A4,4,0,0,0,470.24,43a3.71,3.71,0,0,0-.93-2.57A6.74,6.74,0,0,0,467,38.74c-.95-.42-2.23-.9-3.84-1.45l-.93-.33a31.32,31.32,0,0,1-4.58-2,8.82,8.82,0,0,1-3.13-2.79,7.81,7.81,0,0,1-1.23-4.53,7.82,7.82,0,0,1,2.88-6.44q2.88-2.33,8.2-2.33a21.94,21.94,0,0,1,2.63.16l2.58.33c1,.19,2,.33,3,.44a28.25,28.25,0,0,0,3.2.17h1.1l1.1,9.87h-.55a19.37,19.37,0,0,0-4.41-7,8,8,0,0,0-5.52-2.55,4.43,4.43,0,0,0-3.15,1.12,3.86,3.86,0,0,0-1.18,2.94,3.78,3.78,0,0,0,1,2.66,7.44,7.44,0,0,0,2.49,1.73c1,.43,2.37,1,4.09,1.53l.44.11a3,3,0,0,1,.44.16,32.49,32.49,0,0,1,4.69,2,9.34,9.34,0,0,1,3.15,2.74,7.23,7.23,0,0,1,1.26,4.36,7.75,7.75,0,0,1-1.56,4.88,9.31,9.31,0,0,1-4.5,3.05,21.84,21.84,0,0,1-7.05,1A36.46,36.46,0,0,1,461.85,48Z"/><path d="M488.8,45.87a9.74,9.74,0,0,1-2.66-7.21V22.21l-1.09-1.1H482.3V20h33.46V46.34h3.83v1.1q-4.65,0-7.65.24a56.38,56.38,0,0,0-6.05.85V43.6h-.55a9.32,9.32,0,0,1-3.81,3.62,12,12,0,0,1-5.63,1.31A9.58,9.58,0,0,1,488.8,45.87Zm15.3-2.68a10.88,10.88,0,0,0,1.24-5.63V22.21l-1.1-1.1h-7.68v18.1a7.75,7.75,0,0,0,1.1,4.41,3.46,3.46,0,0,0,3,1.62A3.8,3.8,0,0,0,504.1,43.19Z"/><path d="M529,46.75a13.13,13.13,0,0,1-5.73-5.13,15.12,15.12,0,0,1-2-7.89,15.31,15.31,0,0,1,2-7.9,12.91,12.91,0,0,1,5.71-5.13,20.36,20.36,0,0,1,8.88-1.78q6.86,0,10.78,3.12T552.5,31l-1.65,1.65H532.21v1.26a17,17,0,0,0,1.12,6.33,10.3,10.3,0,0,0,3.24,4.47,7.89,7.89,0,0,0,5,1.65,8.85,8.85,0,0,0,7-3.35A15.58,15.58,0,0,0,552,34.27l1,.55q-.82,6.69-4.47,10.2T537.8,48.53A20.28,20.28,0,0,1,529,46.75Zm11.46-15.22,1.1-1.09a19.59,19.59,0,0,0-1.21-7.63Q539.12,20,537.14,20t-3.37,3.07a25.07,25.07,0,0,0-1.51,8.44Z"/><path d="M1243.69,8.5h-4.6V7.4h63.61V8.5h-4.39l-11.62,38.94h-8.12l-7.29-21.39h-.55l-8.45,21.39h-6.74Zm20.57,30.16,9.54-24.13h5.76l7.79,24.13h.54l8.67-29.06-1.1-1.1h-38.82l-1.1,1.1,8.17,29.06Z"/><path d="M1306.32,46.75a13,13,0,0,1-5.73-5.13,15,15,0,0,1-2-7.89,15.31,15.31,0,0,1,2-7.9,12.91,12.91,0,0,1,5.71-5.13,20.36,20.36,0,0,1,8.88-1.78q6.86,0,10.78,3.12t3.92,8.94l-1.65,1.65h-18.64v1.26a17,17,0,0,0,1.12,6.33,10.3,10.3,0,0,0,3.24,4.47,7.88,7.88,0,0,0,5,1.65,8.85,8.85,0,0,0,7-3.35,15.58,15.58,0,0,0,3.37-8.72l1,.55q-.81,6.69-4.46,10.2t-10.78,3.51A20.28,20.28,0,0,1,1306.32,46.75Zm11.46-15.22,1.1-1.09a19.59,19.59,0,0,0-1.21-7.63q-1.2-2.79-3.18-2.79t-3.37,3.07a25.07,25.07,0,0,0-1.51,8.44Z"/><path d="M1346.6,47.38a8.85,8.85,0,0,1-3.59-3.23,12.84,12.84,0,0,0-4.44.87,16.21,16.21,0,0,0-4.34,2.42h-1.09V8.5h-4.39V7.4a39.16,39.16,0,0,0,7.29-.74,50.21,50.21,0,0,0,7.52-2v18.1h.54a7,7,0,0,1,2.94-2.85,10.3,10.3,0,0,1,4.8-1,12.34,12.34,0,0,1,6.66,1.75,11.54,11.54,0,0,1,4.36,5.08,18.48,18.48,0,0,1,1.53,7.81,18.55,18.55,0,0,1-1.59,7.95,11.71,11.71,0,0,1-11,7A11.28,11.28,0,0,1,1346.6,47.38Zm5.54-4.41a27.27,27.27,0,0,0,1.29-9.24,34,34,0,0,0-.55-6.45,10.61,10.61,0,0,0-1.7-4.3,3.54,3.54,0,0,0-3-1.54,3.78,3.78,0,0,0-3.43,2.2,12.38,12.38,0,0,0-1.23,6v9.1a10.92,10.92,0,0,0,1.23,5.62,3.74,3.74,0,0,0,3.32,2.06Q1350.86,46.45,1352.14,43Z"/><line class="cls-1" x1="589.58" y1="62.79" x2="1193.76" y2="62.79"/><path d="M524,416.5h3.62l.91-.91V386.14l-.91-.91H524v-.9h16.77a24,24,0,0,1,10.15,2,14.81,14.81,0,0,1,6.59,5.73,18.11,18.11,0,0,1,0,17.63,14.81,14.81,0,0,1-6.59,5.73,24,24,0,0,1-10.15,2H524Zm17.22,0q4.17,0,6.39-4.08t2.22-11.55q0-7.49-2.22-11.56t-6.39-4.08h-2.72l-.91.91v29.45l.91.91Z"/><path d="M568.88,416.84a10.79,10.79,0,0,1-4.73-4.24,13.8,13.8,0,0,1,0-13.05,10.64,10.64,0,0,1,4.71-4.24,16.89,16.89,0,0,1,7.34-1.47c3.78,0,6.74.86,8.9,2.58a8.92,8.92,0,0,1,3.24,7.39L587,405.17h-15.4v1a14.06,14.06,0,0,0,.93,5.24,8.65,8.65,0,0,0,2.67,3.69,6.59,6.59,0,0,0,4.15,1.36,7.31,7.31,0,0,0,5.82-2.77,12.91,12.91,0,0,0,2.79-7.2l.86.45q-.69,5.53-3.7,8.43t-8.9,2.9A16.83,16.83,0,0,1,568.88,416.84Zm9.48-12.58.9-.9a16.14,16.14,0,0,0-1-6.3c-.66-1.54-1.54-2.31-2.62-2.31s-2.08.84-2.79,2.54a20.61,20.61,0,0,0-1.25,7Z"/><path d="M599.06,417.86c-.93-.15-1.79-.27-2.58-.34a27.2,27.2,0,0,0-2.72-.12h-.91l-.9-9.51h.45a17.55,17.55,0,0,0,4,6.91,7.66,7.66,0,0,0,5.44,2.51,4.37,4.37,0,0,0,3-1,3.29,3.29,0,0,0,1.14-2.59,3.12,3.12,0,0,0-.77-2.13,5.83,5.83,0,0,0-2-1.38c-.79-.34-1.85-.75-3.18-1.2l-.77-.27a25.68,25.68,0,0,1-3.78-1.61,7.33,7.33,0,0,1-2.58-2.31,7.22,7.22,0,0,1,1.36-9.06q2.37-1.93,6.77-1.93a18.51,18.51,0,0,1,2.18.14l2.13.27c.84.15,1.67.27,2.47.36a23.72,23.72,0,0,0,2.65.14h.9l.91,8.15h-.45a16.19,16.19,0,0,0-3.65-5.82,6.6,6.6,0,0,0-4.55-2.11,3.62,3.62,0,0,0-2.61.93,3.21,3.21,0,0,0-1,2.43,3.15,3.15,0,0,0,.82,2.2A6.09,6.09,0,0,0,603,402c.83.36,2,.79,3.38,1.27l.36.09a1.78,1.78,0,0,1,.36.14,24.63,24.63,0,0,1,3.88,1.61,7.65,7.65,0,0,1,2.6,2.26,5.91,5.91,0,0,1,1.05,3.6,6.37,6.37,0,0,1-1.3,4,7.71,7.71,0,0,1-3.71,2.51,17.88,17.88,0,0,1-5.82.84A30.86,30.86,0,0,1,599.06,417.86Z"/><path d="M619.66,415.09q-3.24-3.21-3.24-8.88t3.28-9.08q3.28-3.28,9-3.29a14.67,14.67,0,0,1,2,.14l1.83.27c.76.15,1.49.27,2.2.36a19.88,19.88,0,0,0,2.47.14h.91l.9,9.06h-.9a14.28,14.28,0,0,0-2.72-6.46,5.65,5.65,0,0,0-4.4-2.38,4.52,4.52,0,0,0-4.1,2.72,16,16,0,0,0-1.47,7.52,17.19,17.19,0,0,0,1.68,8.16,5.41,5.41,0,0,0,5.07,3.13,6.52,6.52,0,0,0,3.9-1.27,9.58,9.58,0,0,0,2.92-3.54,14.15,14.15,0,0,0,1.43-5.16l.86.45q-.68,5.53-3.65,8.43t-8.68,2.9Q622.91,418.31,619.66,415.09Z"/><path d="M642.25,416.5H645l.91-.91V395.65h-3.62v-.9h1.63c2.2,0,4.1,0,5.71-.12a19,19,0,0,0,4.44-.79v7.25h.45a9.78,9.78,0,0,1,2.45-5,6.5,6.5,0,0,1,4.35-2.06l3.62-.23-.9,7.7h-7.71A1.78,1.78,0,0,0,655,402a1.8,1.8,0,0,0-.48,1.34v12.23l.91.91h7.25v.9H642.25Z"/><path d="M666.26,416.5H669l.91-.91V395.65h-3.18v-.9h1.5c2.24,0,4.17,0,5.8-.09a17.3,17.3,0,0,0,4.49-.82v21.75l.9.91h2.72v.9H666.26Zm3.17-34.89h9.07v8.61h-9.07Z"/><path d="M683.48,427.83h2.72l.91-.91V395.65h-3.18v-.9h1.5c2.14,0,4,0,5.51-.09a16.87,16.87,0,0,0,4.32-.82v3.63h.46a6.79,6.79,0,0,1,2.83-2.68,9,9,0,0,1,4.19-1,9.69,9.69,0,0,1,5.46,1.61,11.06,11.06,0,0,1,3.81,4.4,14.75,14.75,0,0,1,0,12.46,11,11,0,0,1-3.86,4.39,9.94,9.94,0,0,1-5.55,1.61,9.8,9.8,0,0,1-4.08-.84,6.38,6.38,0,0,1-2.8-2.29v11.74l.9.91h5.89v.9h-19Zm19.69-14.16a20.51,20.51,0,0,0,1.16-7.59,19.87,19.87,0,0,0-1.14-7.46c-.75-1.83-2-2.74-3.58-2.74a3.11,3.11,0,0,0-2.94,1.88,12.06,12.06,0,0,0-.95,5.37v6.57a11.06,11.06,0,0,0,.92,5,3.05,3.05,0,0,0,2.88,1.79C701.18,416.5,702.4,415.55,703.17,413.67Z"/><path d="M720.64,416.36a6.63,6.63,0,0,1-2.27-5.3V395.65h-4.08v-.9a13.64,13.64,0,0,0,8.07-3,12.47,12.47,0,0,0,3.94-7.38H727v10.42h6.8v.9H727v17.22a4.48,4.48,0,0,0,.7,2.65,2.25,2.25,0,0,0,1.93,1c1.33,0,2.45-.85,3.35-2.54a15.93,15.93,0,0,0,1.54-6.84l.91.45c-.24,3.75-1,6.47-2.42,8.18s-3.46,2.56-6.23,2.56A9.06,9.06,0,0,1,720.64,416.36Z"/><path d="M736.09,416.5h2.72l.9-.91V395.65h-3.17v-.9H738c2.23,0,4.17,0,5.8-.09a17.23,17.23,0,0,0,4.48-.82v21.75l.91.91H752v.9H736.09Zm3.17-34.89h9.06v8.61h-9.06Z"/><path d="M759.45,416.84a10.52,10.52,0,0,1-4.56-4.24,14.26,14.26,0,0,1,0-13.05,10.58,10.58,0,0,1,4.56-4.24,17.4,17.4,0,0,1,14,0,10.5,10.5,0,0,1,4.55,4.24,14.18,14.18,0,0,1,0,13.05,10.44,10.44,0,0,1-4.55,4.24,17.4,17.4,0,0,1-14,0Zm10.24-2.2a44.09,44.09,0,0,0,0-17.13q-.84-2.76-3.24-2.76t-3.24,2.76a44.09,44.09,0,0,0,0,17.13q.84,2.76,3.24,2.76T769.69,414.64Z"/><path d="M781,416.5h2.26l.91-.91V395.65H781v-.9c2.45,0,4.55-.05,6.32-.16a28,28,0,0,0,5-.75v4.08h.45a7.59,7.59,0,0,1,3.15-3,9.72,9.72,0,0,1,4.64-1.09,7.9,7.9,0,0,1,5.87,2.2,8,8,0,0,1,2.2,6v13.59l.91.91h2.26v.9H781Zm18.12,0,.91-.91v-14a6.35,6.35,0,0,0-.91-3.64,2.85,2.85,0,0,0-2.49-1.34,3.16,3.16,0,0,0-2.83,1.7,9,9,0,0,0-1,4.64v12.69l.91.91Z"/><path d="M830.59,416.84A10.44,10.44,0,0,1,826,412.6a14.18,14.18,0,0,1,0-13.05,10.5,10.5,0,0,1,4.55-4.24,17.4,17.4,0,0,1,14,0,10.58,10.58,0,0,1,4.56,4.24,14.26,14.26,0,0,1,0,13.05,10.52,10.52,0,0,1-4.56,4.24,17.4,17.4,0,0,1-14,0Zm10.24-2.2a44.09,44.09,0,0,0,0-17.13q-.84-2.76-3.24-2.76t-3.24,2.76a44.09,44.09,0,0,0,0,17.13q.84,2.76,3.24,2.76T840.83,414.64Z"/><path d="M852.09,416.5h2.72l.91-.91V395.65h-3.63v-.9h3.63v-.46l9.06-9.06a14.86,14.86,0,0,1,2.81-2.33,6.73,6.73,0,0,1,2.63-.84l4.07-.45-.9,7.7h-8.16l-.9.91v4.53h7.25v.9h-7.25v19.94l.9.91h6.35v.9H852.09Z"/><path d="M884.26,416.5H887l.91-.91V395.65h-3.17v-.9q3.66,0,6.32-.16a28.09,28.09,0,0,0,5-.75v4.08h.45a8.64,8.64,0,0,1,3.44-3,10.32,10.32,0,0,1,4.71-1.09,9.44,9.44,0,0,1,4.74,1.09,5.1,5.1,0,0,1,2.51,3h.46a7.72,7.72,0,0,1,3.31-3,10.6,10.6,0,0,1,4.84-1.09,7.43,7.43,0,0,1,5.65,2.18,8.35,8.35,0,0,1,2.06,6v13.59l.9.91h2.72v.9H884.26Zm18.58,0,.91-.91V400.64a4.71,4.71,0,0,0-.86-3,2.8,2.8,0,0,0-2.31-1.09,3.52,3.52,0,0,0-3,1.45,6.5,6.5,0,0,0-1.09,4v13.59l.9.91Zm15.86,0,.91-.91V400.64a4.71,4.71,0,0,0-.86-3,2.8,2.8,0,0,0-2.31-1.09,3.52,3.52,0,0,0-3,1.45,6.5,6.5,0,0,0-1.09,4v13.59l.9.91Z"/><path d="M935.2,417a4.61,4.61,0,0,1-2-4.08,5.18,5.18,0,0,1,1.09-3.3,9.57,9.57,0,0,1,3.53-2.57,40.82,40.82,0,0,1,6.71-2.28l5-1.36v-3.17a6.7,6.7,0,0,0-1-4,3.3,3.3,0,0,0-2.85-1.47,2.57,2.57,0,0,0-2.59,1.58,6.57,6.57,0,0,0,.1,4.31l.49,1.81-9,2.27V401a5.83,5.83,0,0,1,3.17-5.19,16.24,16.24,0,0,1,8.52-1.93c3.8,0,6.73.76,8.77,2.27a7.45,7.45,0,0,1,3,6.34V416.5h3.63v.9q-3.9,0-6.59.21a42.17,42.17,0,0,0-5.19.7v-5h-.46a9.43,9.43,0,0,1-1.81,3,5.63,5.63,0,0,1-2.51,1.5,14.82,14.82,0,0,1-4.06.45A10.5,10.5,0,0,1,935.2,417Zm12.3-2.06A7.93,7.93,0,0,0,949,411.6a21,21,0,0,0,.52-5v-2.36a12.52,12.52,0,0,0-5.43,3.15,6.71,6.71,0,0,0-1.82,4.69A4.85,4.85,0,0,0,943,415a2.49,2.49,0,0,0,2.13,1.06A3,3,0,0,0,947.5,414.89Z"/><path d="M966.58,426.9q-3.84-1.84-4.15-5l-.23-2.27,8.61.91v1.36a5.48,5.48,0,0,0,1.75,4.32,6.79,6.79,0,0,0,4.73,1.57,7.56,7.56,0,0,0,4.08-.93,3.13,3.13,0,0,0,1.45-2.83,2.64,2.64,0,0,0-1.13-2.27,7.53,7.53,0,0,0-2.83-1.18c-1.14-.24-2.69-.5-4.65-.77l-.43,0-.38-.07a22.67,22.67,0,0,1-5.17-1.09,6.58,6.58,0,0,1-3.33-2.83,11.54,11.54,0,0,1-1.34-6.14l7.25-.45v-.46a9.89,9.89,0,0,1-5.3-2.35,5.83,5.83,0,0,1-2-4.44,6.82,6.82,0,0,1,1.47-4.38,9.26,9.26,0,0,1,4.24-2.8,19.64,19.64,0,0,1,6.53-1,20.64,20.64,0,0,1,5.84.75,10.37,10.37,0,0,1,4.13,2.2,8.4,8.4,0,0,1,1-4.2,3.27,3.27,0,0,1,2.63-1.69l3.17-.23-.45,6.34h-5.44l-.36.37A6.53,6.53,0,0,1,988,402a6.08,6.08,0,0,1-3.13,5.46q-3.12,1.92-9.06,2.24l-5.48.27a1.68,1.68,0,0,0,.68,1.45,4,4,0,0,0,1.77.68q1.08.18,3,.36a.29.29,0,0,0,.16.05h.16q4.4.45,7.36,1.07a13.1,13.1,0,0,1,5.21,2.24,5.32,5.32,0,0,1,2.25,4.57,6.83,6.83,0,0,1-3.79,6.12q-3.78,2.22-10.62,2.22A23.28,23.28,0,0,1,966.58,426.9ZM978.24,407a15.31,15.31,0,0,0,.73-5.42,14.27,14.27,0,0,0-.7-5.07,2.63,2.63,0,0,0-4.94,0,14,14,0,0,0-.71,5.07,15.55,15.55,0,0,0,.73,5.42,2.55,2.55,0,0,0,4.89,0Z"/><path d="M996.37,417a4.61,4.61,0,0,1-2-4.08,5.24,5.24,0,0,1,1.09-3.3A9.7,9.7,0,0,1,999,407a40.33,40.33,0,0,1,6.7-2.28l5-1.36v-3.17a6.77,6.77,0,0,0-1-4,3.33,3.33,0,0,0-2.86-1.47,2.55,2.55,0,0,0-2.58,1.58,6.5,6.5,0,0,0,.09,4.31l.5,1.81-9,2.27V401a5.85,5.85,0,0,1,3.17-5.19,16.29,16.29,0,0,1,8.52-1.93q5.71,0,8.77,2.27a7.43,7.43,0,0,1,3.06,6.34V416.5h3.62v.9c-2.6,0-4.79.07-6.59.21a42.17,42.17,0,0,0-5.19.7v-5h-.45a9.61,9.61,0,0,1-1.82,3,5.63,5.63,0,0,1-2.51,1.5,14.72,14.72,0,0,1-4.06.45A10.55,10.55,0,0,1,996.37,417Zm12.3-2.06a8.06,8.06,0,0,0,1.5-3.29,21.52,21.52,0,0,0,.52-5v-2.36a12.56,12.56,0,0,0-5.44,3.15,6.7,6.7,0,0,0-1.81,4.69,4.78,4.78,0,0,0,.77,2.88,2.47,2.47,0,0,0,2.13,1.06A3,3,0,0,0,1008.67,414.89Z"/><path d="M1023.6,417l14.05-21.3h-6.8l-5.44,10H1025l.91-10.87h22.2v.45l-13.59,21.3h7.25l5.89-10.42h.45l-1.36,11.32H1023.6Z"/><path d="M1049.43,416.5h2.72l.91-.91V395.65h-3.18v-.9h1.5c2.23,0,4.17,0,5.8-.09a17.3,17.3,0,0,0,4.49-.82v21.75l.9.91h2.72v.9h-15.86Zm3.17-34.89h9.07v8.61h-9.07Z"/><path d="M1066.2,416.5h2.26l.91-.91V395.65h-3.17v-.9q3.66,0,6.32-.16a28,28,0,0,0,5-.75v4.08h.46a7.53,7.53,0,0,1,3.15-3,9.72,9.72,0,0,1,4.64-1.09,7.92,7.92,0,0,1,5.87,2.2,8.06,8.06,0,0,1,2.2,6v13.59l.9.91H1097v.9H1066.2Zm18.12,0,.91-.91v-14a6.35,6.35,0,0,0-.91-3.64,2.85,2.85,0,0,0-2.49-1.34,3.16,3.16,0,0,0-2.83,1.7,9,9,0,0,0-1,4.64v12.69l.9.91Z"/><path d="M1104.76,416.84a10.76,10.76,0,0,1-4.74-4.24,13.8,13.8,0,0,1,0-13.05,10.74,10.74,0,0,1,4.71-4.24,16.92,16.92,0,0,1,7.34-1.47q5.67,0,8.91,2.58a8.92,8.92,0,0,1,3.24,7.39l-1.36,1.36h-15.41v1a14.06,14.06,0,0,0,.93,5.24,8.65,8.65,0,0,0,2.67,3.69,6.61,6.61,0,0,0,4.15,1.36,7.28,7.28,0,0,0,5.82-2.77,12.84,12.84,0,0,0,2.79-7.2l.86.45q-.68,5.53-3.69,8.43t-8.91,2.9A16.75,16.75,0,0,1,1104.76,416.84Zm9.47-12.58.9-.9a16.35,16.35,0,0,0-1-6.3c-.67-1.54-1.54-2.31-2.63-2.31s-2.08.84-2.79,2.54a20.64,20.64,0,0,0-1.24,7Z"/><path d="M1150.27,417.36a7.43,7.43,0,0,1-3-2.67,10.6,10.6,0,0,0-3.67.72,13.34,13.34,0,0,0-3.58,2h-.91V385.23h-3.62v-.9a32.64,32.64,0,0,0,6-.62,40.92,40.92,0,0,0,6.21-1.65V397h.45a5.85,5.85,0,0,1,2.43-2.35,8.43,8.43,0,0,1,4-.82,10.29,10.29,0,0,1,5.51,1.45,9.57,9.57,0,0,1,3.6,4.19,15.2,15.2,0,0,1,1.27,6.46,15.44,15.44,0,0,1-1.31,6.57,9.67,9.67,0,0,1-9.11,5.8A9.46,9.46,0,0,1,1150.27,417.36Zm4.58-3.65a22.46,22.46,0,0,0,1.07-7.63,27.06,27.06,0,0,0-.46-5.33,8.85,8.85,0,0,0-1.4-3.56,3,3,0,0,0-2.45-1.26,3.12,3.12,0,0,0-2.83,1.81,10.21,10.21,0,0,0-1,5v7.53a9,9,0,0,0,1,4.64,3.09,3.09,0,0,0,2.74,1.7Q1153.78,416.59,1154.85,413.71Z"/><path d="M1166.34,416.5h2.72l.9-.91V385.23h-3.62v-.9a33.12,33.12,0,0,0,6.05-.62,39.32,39.32,0,0,0,6.18-1.65v33.53l.91.91h2.72v.9h-15.86Z"/><path d="M1188.79,416.84a10.44,10.44,0,0,1-4.55-4.24,14.18,14.18,0,0,1,0-13.05,10.5,10.5,0,0,1,4.55-4.24,17.4,17.4,0,0,1,14,0,10.58,10.58,0,0,1,4.56,4.24,14.26,14.26,0,0,1,0,13.05,10.52,10.52,0,0,1-4.56,4.24,17.4,17.4,0,0,1-14,0Zm10.24-2.2a44.09,44.09,0,0,0,0-17.13q-.84-2.76-3.24-2.76t-3.24,2.76a44.09,44.09,0,0,0,0,17.13q.84,2.76,3.24,2.76T1199,414.64Z"/><path d="M1213.53,426.9q-3.83-1.84-4.14-5l-.23-2.27,8.61.91v1.36a5.5,5.5,0,0,0,1.74,4.32,6.83,6.83,0,0,0,4.74,1.57,7.56,7.56,0,0,0,4.08-.93,3.15,3.15,0,0,0,1.45-2.83,2.64,2.64,0,0,0-1.13-2.27,7.51,7.51,0,0,0-2.84-1.18c-1.13-.24-2.68-.5-4.64-.77l-.43,0-.39-.07a22.69,22.69,0,0,1-5.16-1.09,6.58,6.58,0,0,1-3.33-2.83,11.54,11.54,0,0,1-1.34-6.14l7.25-.45v-.46a9.85,9.85,0,0,1-5.3-2.35,5.83,5.83,0,0,1-2-4.44,6.82,6.82,0,0,1,1.47-4.38,9.21,9.21,0,0,1,4.24-2.8,19.62,19.62,0,0,1,6.52-1,20.67,20.67,0,0,1,5.85.75,10.26,10.26,0,0,1,4.12,2.2,8.4,8.4,0,0,1,1-4.2,3.26,3.26,0,0,1,2.63-1.69l3.17-.23-.45,6.34h-5.44l-.36.37A6.53,6.53,0,0,1,1235,402a6.08,6.08,0,0,1-3.13,5.46q-3.12,1.92-9.06,2.24l-5.48.27a1.66,1.66,0,0,0,.68,1.45,4,4,0,0,0,1.76.68c.73.12,1.74.24,3,.36a.27.27,0,0,0,.16.05h.16q4.39.45,7.36,1.07a13.1,13.1,0,0,1,5.21,2.24,5.31,5.31,0,0,1,2.24,4.57,6.82,6.82,0,0,1-3.78,6.12q-3.78,2.22-10.63,2.22A23.34,23.34,0,0,1,1213.53,426.9ZM1225.2,407a15.55,15.55,0,0,0,.73-5.42,14,14,0,0,0-.71-5.07,2.63,2.63,0,0,0-4.93,0,14,14,0,0,0-.71,5.07,15.31,15.31,0,0,0,.73,5.42,2.55,2.55,0,0,0,4.89,0Z"/></g></svg>